<?xml version="1.0" standalone="no"?>
<!DOCTYPE svg PUBLIC "-//W3C//DTD SVG 20010904//EN"
 "http://www.w3.org/TR/2001/REC-SVG-20010904/DTD/svg10.dtd">
<svg version="1.0" xmlns="http://www.w3.org/2000/svg"
 width="1024.000000pt" height="1024.000000pt" viewBox="0 0 1024.000000 1024.000000"
 preserveAspectRatio="xMidYMid meet">
<metadata>
Created by potrace 1.14, written by Peter Selinger 2001-2017
</metadata>
<g transform="translate(0.000000,1024.000000) scale(0.100000,-0.100000)"
fill="#000000" stroke="none">
<path d="M0 5120 l0 -5120 5120 0 5120 0 0 5120 0 5120 -5120 0 -5120 0 0
-5120z m5161 3864 c59 -30 68 -115 18 -156 -55 -46 -159 -1 -159 69 0 44 14
69 48 87 35 20 56 20 93 0z m-54 -326 l7 -33 6 30 5 30 103 3 102 3 0 -393 c0
-216 3 -579 7 -805 l6 -413 27 0 27 0 6 685 c6 678 6 686 27 720 19 31 20 39
9 68 -15 44 -5 85 26 99 37 17 73 2 92 -37 15 -31 15 -36 -1 -60 -9 -14 -27
-31 -40 -36 -19 -9 -25 -22 -30 -63 -3 -28 -6 -353 -6 -722 l0 -672 23 -6 c12
-3 28 -6 34 -6 10 0 13 104 15 473 l3 472 23 3 c53 8 52 17 52 -497 l1 -476
102 -34 c56 -18 137 -51 180 -72 43 -21 80 -39 81 -39 2 0 6 26 9 57 6 60 25
93 71 127 23 18 45 22 137 24 127 4 154 0 169 -29 9 -16 8 -26 -5 -45 -15 -23
-21 -24 -114 -24 -84 0 -102 -3 -125 -21 -24 -19 -26 -27 -26 -89 l0 -69 58
-32 c31 -18 103 -71 159 -116 57 -46 104 -83 107 -83 2 0 -5 39 -15 88 -11 48
-17 96 -14 107 3 11 10 58 15 105 17 157 109 300 256 397 54 36 57 37 70 18 8
-10 14 -22 14 -27 0 -4 -30 -30 -68 -57 -132 -97 -212 -238 -212 -378 l0 -53
124 0 c87 0 126 -4 133 -12 5 -7 20 -40 33 -73 27 -65 84 -130 140 -157 l35
-17 3 61 c3 51 0 63 -15 72 -61 33 -90 99 -74 168 l9 36 -114 4 c-99 3 -116 6
-134 24 -31 30 -17 58 24 48 42 -10 291 -10 343 0 36 7 48 5 85 -17 47 -27 66
-54 77 -108 4 -19 10 -33 14 -31 4 1 25 2 47 2 39 0 40 1 40 33 0 138 -110
254 -251 265 -49 4 -66 -1 -133 -33 -84 -40 -115 -41 -168 -3 -32 22 -35 40
-13 58 13 11 22 10 53 -8 l37 -21 70 32 c100 46 184 45 277 -1 107 -53 162
-130 182 -254 l10 -68 136 0 c103 0 141 -4 156 -14 15 -12 17 -18 8 -33 -10
-17 -28 -18 -236 -14 l-225 4 -39 -35 c-21 -19 -52 -40 -69 -45 -29 -9 -30
-11 -30 -74 l0 -64 35 3 c19 2 64 16 99 33 73 33 114 38 109 12 -7 -40 -137
-103 -210 -103 l-38 0 0 -50 c0 -46 -2 -50 -24 -50 -27 0 -36 16 -36 69 0 36
-2 38 -61 67 -74 35 -138 103 -170 179 l-23 55 -109 0 -110 0 7 -37 c19 -103
19 -116 3 -128 -14 -10 -7 -22 59 -96 181 -201 284 -356 369 -548 79 -182 141
-420 150 -581 4 -52 8 -110 11 -127 l5 -33 124 0 c113 0 125 -2 135 -19 15
-30 12 -69 -7 -79 -9 -6 -68 -8 -134 -5 l-118 6 -5 -34 c-3 -19 -7 -74 -11
-122 -7 -116 -37 -253 -90 -412 -108 -324 -243 -535 -509 -800 -116 -115 -175
-165 -253 -215 l-102 -65 -1 -76 c0 -115 -4 -113 244 -119 l201 -5 3 -34 c2
-18 -1 -38 -6 -43 -14 -14 -377 -19 -427 -6 -22 5 -51 20 -64 31 -33 31 -61
95 -61 144 l0 42 -74 -35 c-41 -19 -124 -54 -186 -78 l-111 -42 1 -492 c1
-483 0 -492 -20 -512 -16 -16 -24 -18 -40 -10 -20 10 -20 23 -20 500 0 476 -1
490 -19 490 -54 0 -51 43 -51 -676 0 -417 4 -681 10 -711 8 -37 17 -52 40 -65
24 -14 30 -24 30 -52 0 -81 -95 -105 -125 -33 -11 26 -10 36 2 63 15 30 14 35
-11 89 l-26 57 0 654 0 654 -27 -6 c-16 -4 -29 -8 -30 -9 -2 -1 -6 -356 -10
-788 l-6 -787 -98 0 -99 0 -7 28 -7 27 -6 -25 c-6 -24 -8 -25 -106 -28 l-101
-3 -6 443 c-4 244 -7 599 -7 789 0 374 2 359 -51 359 -19 0 -19 -16 -19 -669
0 -369 -4 -672 -9 -675 -4 -3 -14 -26 -21 -51 -10 -35 -10 -49 -1 -58 18 -18
13 -65 -11 -87 -29 -27 -64 -25 -94 6 -32 31 -26 67 16 104 20 18 31 41 39 78
17 81 15 1361 -1 1367 -7 3 -23 6 -36 7 l-22 3 0 -487 c0 -486 0 -487 -21
-502 -24 -17 -44 -12 -54 12 -3 9 -6 238 -5 509 l1 491 -53 17 c-68 23 -210
81 -269 111 l-46 23 -10 -69 c-13 -81 -39 -121 -96 -144 -69 -29 -163 -18
-173 19 -10 41 10 62 67 68 28 4 62 13 75 22 22 14 24 22 24 93 l0 77 -108 72
c-310 208 -573 530 -712 872 -88 216 -128 381 -138 571 l-7 125 -80 3 c-43 2
-85 8 -93 14 -8 7 -12 26 -10 47 l3 36 90 5 90 5 7 115 c19 349 163 720 397
1025 123 162 373 391 508 467 l53 30 0 68 c0 62 -2 70 -26 89 -25 19 -40 21
-208 21 -99 0 -186 4 -192 8 -7 4 -14 25 -15 47 l-4 40 215 3 c194 2 218 0
250 -16 49 -27 69 -58 82 -129 l11 -62 46 23 c39 20 114 49 281 111 l35 13 3
478 c2 488 3 493 39 494 6 0 19 -7 27 -16 14 -14 16 -71 16 -475 0 -278 4
-459 9 -459 5 0 21 4 36 10 l26 10 -3 711 -3 711 -25 19 c-68 51 -77 83 -35
124 30 30 54 31 89 4 28 -22 34 -56 15 -91 -8 -15 -6 -31 10 -68 21 -48 21
-62 21 -725 l0 -676 33 3 32 3 6 500 c3 275 7 636 8 803 l1 302 100 0 101 0 6
-32z m-594 -80 c24 -33 17 -71 -18 -94 -33 -22 -71 -11 -90 26 -19 38 -19 42
6 74 28 35 73 33 102 -6z m1295 16 c44 -30 23 -101 -34 -118 -32 -10 -74 28
-74 66 0 60 57 88 108 52z m-1566 -109 c10 -22 9 -29 -9 -46 -16 -17 -25 -19
-41 -10 -26 14 -34 38 -22 62 16 28 58 25 72 -6z m1889 -16 c37 -39 37 -66 -1
-117 -29 -40 -50 -54 -50 -32 0 13 -37 50 -50 50 -5 0 -14 -9 -20 -20 -16 -30
5 -63 36 -57 24 4 24 3 8 -14 -9 -11 -27 -19 -39 -19 -27 0 -85 51 -85 74 0
19 140 166 159 166 7 0 26 -14 42 -31z m-2161 -34 c31 -38 -27 -83 -62 -47
-16 16 -18 23 -9 41 13 24 53 28 71 6z m548 -24 c8 -5 12 -17 10 -27 -3 -15
-16 -20 -73 -27 -95 -11 -135 -3 -135 27 0 12 3 26 7 29 9 10 176 8 191 -2z
m1289 -4 c3 -3 2 -15 -2 -26 -10 -31 -72 -30 -84 2 -5 12 -6 26 -4 31 6 8 80
2 90 -7z m572 -43 c9 -20 7 -28 -10 -45 -26 -26 -51 -21 -63 13 -20 56 48 86
73 32z m-2209 -59 l0 -55 60 0 c57 0 60 -1 60 -25 0 -24 -3 -25 -61 -25 l-60
0 3 -37 3 -38 58 3 c55 4 57 3 57 -22 0 -22 -5 -26 -44 -31 -25 -4 -49 -4 -55
0 -7 4 -11 -3 -11 -18 0 -14 -3 -39 -6 -56 -6 -26 -11 -31 -35 -31 -28 0 -29
1 -29 55 l0 55 -60 0 c-52 0 -60 3 -60 19 0 19 34 31 91 31 26 0 29 3 29 35
l0 35 -60 0 c-57 0 -60 1 -60 25 0 24 3 25 60 25 l60 0 0 55 c0 54 0 55 30 55
30 0 30 -1 30 -55z m-465 11 c0 -52 -63 -62 -73 -12 -7 33 6 47 40 44 29 -3
33 -7 33 -32z m2887 21 c30 -24 27 -61 -7 -83 -25 -16 -27 -16 -50 6 -30 28
-31 44 -5 70 23 23 38 25 62 7z m-382 -25 c0 -4 -9 -22 -20 -40 -17 -28 -23
-32 -35 -22 -23 19 -18 44 12 62 26 15 43 15 43 0z m-405 -61 c9 -29 -5 -52
-29 -49 -37 5 -34 68 3 68 11 0 22 -8 26 -19z m-1160 -16 c46 -45 22 -115 -40
-115 -63 0 -89 80 -39 119 34 27 50 26 79 -4z m-697 -13 c3 -16 -2 -22 -17
-22 -24 0 -35 15 -27 36 9 23 40 13 44 -14z m432 3 c0 -18 -5 -25 -19 -25 -11
0 -23 5 -26 10 -11 18 3 40 25 40 15 0 20 -7 20 -25z m1285 5 c38 -42 9 -110
-47 -110 -57 0 -89 70 -51 112 22 24 75 23 98 -2z m-2121 -56 c8 -20 8 -63 0
-103 -5 -24 -12 -31 -30 -31 -29 0 -37 25 -29 95 6 49 10 55 30 55 13 0 26 -7
29 -16z m124 -87 c3 -95 3 -98 25 -95 21 3 22 8 25 101 3 94 4 98 24 95 15 -2
25 -14 31 -38 12 -45 3 -186 -14 -206 -10 -12 -37 -14 -148 -12 -132 3 -136 4
-139 25 -4 25 12 31 93 35 47 3 50 5 47 28 -2 14 0 58 3 98 6 68 8 73 28 70
21 -3 22 -9 25 -101z m2405 53 c51 -58 25 -159 -47 -179 -77 -21 -146 26 -146
101 0 106 123 156 193 78z m549 24 c3 -3 4 -14 1 -25 -5 -19 -14 -19 -192 -17
-184 3 -186 3 -189 26 l-3 22 189 0 c104 0 191 -3 194 -6z m373 -30 c32 -33
-4 -92 -42 -68 -32 20 -39 41 -19 63 23 25 39 26 61 5z m-3047 -36 c-3 -25
-17 -32 -37 -19 -19 12 -6 41 19 41 16 0 21 -5 18 -22z m430 0 c-2 -13 -10
-23 -18 -23 -8 0 -16 10 -18 23 -3 17 2 22 18 22 16 0 21 -5 18 -22z m2366
-54 c13 -34 -12 -44 -115 -44 -55 0 -99 3 -99 8 0 4 3 17 6 30 6 21 11 22 104
22 81 0 99 -3 104 -16z m-480 -10 c9 -8 16 -20 16 -26 0 -13 -30 -48 -41 -48
-13 0 -39 30 -39 45 0 15 27 45 40 45 5 0 16 -7 24 -16z m724 -121 c2 -85 4
-93 22 -93 19 0 20 7 20 96 l0 95 28 -3 c21 -2 28 -9 30 -29 3 -24 5 -25 54
-21 57 5 80 -12 71 -48 -5 -17 -14 -20 -64 -20 l-59 0 0 -240 0 -240 86 0 85
0 -3 -32 -3 -33 -82 -3 -83 -3 0 -40 c0 -38 -2 -40 -27 -37 l-28 3 -3 248 c-2
242 -3 248 -22 245 -20 -3 -21 -11 -23 -245 -1 -133 -5 -245 -9 -249 -5 -4
-19 -2 -33 4 -19 9 -25 19 -25 42 l0 30 -59 0 c-41 0 -65 5 -75 16 -18 18 -18
17 -10 38 5 13 22 16 80 16 l74 0 0 240 0 240 -60 0 -60 0 0 35 0 35 55 0 c50
0 56 2 65 26 7 19 16 25 33 22 21 -3 22 -8 25 -95z m-2693 42 c0 -25 -4 -30
-25 -30 -28 0 -39 27 -19 51 20 24 44 13 44 -21z m-257 -2 c-2 -20 -9 -29 -25
-31 -20 -3 -23 1 -23 27 0 27 4 31 26 31 22 0 25 -4 22 -27z m2692 -28 l0 -36
-147 3 c-133 3 -148 5 -151 21 -9 44 0 47 153 47 l145 0 0 -35z m-2300 -44
c12 -24 4 -48 -22 -62 -41 -22 -81 18 -58 61 14 27 65 27 80 1z m-592 -21 c28
-26 28 -57 0 -87 -25 -27 -54 -29 -80 -6 -24 22 -23 62 4 90 27 28 48 29 76 3z
m1972 0 c21 -39 -27 -79 -58 -48 -13 13 -16 50 -5 61 14 14 53 6 63 -13z m491
-15 c89 -45 148 -156 135 -251 -8 -60 -50 -137 -92 -169 -105 -80 -241 -72
-342 20 -107 96 -91 302 28 381 91 60 177 66 271 19z m-3219 8 c25 -22 23 -41
-7 -55 -21 -9 -29 -9 -42 5 -14 13 -14 21 -5 42 13 29 28 32 54 8z m588 -33
c0 -18 -24 -50 -39 -50 -30 0 -42 63 -14 79 23 12 53 -4 53 -29z m-747 -12 c8
-28 -2 -48 -24 -48 -23 0 -36 44 -19 65 15 18 36 10 43 -17z m4384 10 c28 -26
30 -61 3 -88 -31 -31 -63 -30 -97 3 -30 27 -29 52 2 82 30 31 62 32 92 3z
m-4533 -82 c8 -32 -2 -56 -24 -56 -18 0 -36 52 -24 71 11 18 42 9 48 -15z
m4710 13 c33 -15 40 -37 21 -65 -17 -26 -53 -32 -73 -12 -17 17 -15 54 4 72
18 19 17 19 48 5z m-3010 -50 c49 -38 24 -119 -36 -119 -42 0 -68 25 -68 67 0
27 6 37 33 53 40 25 39 25 71 -1z m1331 -59 c0 -29 -4 -36 -23 -38 -43 -6 -69
37 -40 66 7 7 24 12 38 10 21 -3 25 -8 25 -38z m1052 18 c31 -29 30 -72 -2
-103 -69 -70 -170 30 -103 102 28 30 74 30 105 1z m-4365 -63 c8 -19 8 -28 -2
-40 -23 -28 -70 -12 -70 25 0 42 54 54 72 15z m5306 13 c21 -21 14 -57 -12
-64 -32 -8 -46 2 -46 30 0 24 17 46 35 46 6 0 16 -5 23 -12z m-184 -69 c62
-54 59 -129 -6 -169 -37 -22 -104 -26 -128 -7 -49 38 -62 95 -35 147 35 68
111 81 169 29z m-5220 -5 c21 -21 20 -37 -3 -58 -15 -14 -24 -15 -40 -6 -26
13 -28 55 -3 69 23 14 28 14 46 -5z m5504 -23 c5 -32 -23 -54 -49 -40 -11 5
-19 18 -19 27 0 45 62 56 68 13z m-3480 -57 c65 -40 95 -99 90 -177 -12 -170
-208 -246 -331 -129 -43 40 -57 75 -57 137 0 69 21 116 69 156 69 57 149 61
229 13z m2208 -9 c12 -29 -5 -65 -30 -65 -35 0 -52 25 -38 55 13 28 59 35 68
10z m-810 -16 c3 -6 1 -16 -5 -22 -6 -6 -11 -18 -11 -27 0 -8 -7 -26 -16 -38
-15 -22 -17 -22 -35 -6 -18 16 -18 18 8 48 14 17 30 30 34 29 5 -2 6 4 3 12
-7 17 11 21 22 4z m-3032 -15 c20 -19 20 -43 1 -71 -23 -32 -54 -35 -81 -8
-13 13 -24 32 -24 41 0 46 71 72 104 38z m3722 -109 c15 -23 15 -27 0 -50 -19
-29 -47 -32 -70 -9 -31 30 -9 84 34 84 11 0 27 -11 36 -25z m-468 -24 c18 -11
11 -61 -10 -75 -13 -8 -22 -6 -37 8 -25 23 -26 39 -5 60 17 18 32 20 52 7z
m-3694 -20 c14 -15 15 -24 7 -39 -23 -44 -81 -35 -81 12 0 45 44 61 74 27z
m5408 13 c71 -7 86 -20 68 -55 -10 -18 -23 -19 -194 -19 -158 0 -185 2 -190
16 -10 26 -7 52 7 57 18 8 231 8 309 1z m188 -13 c15 -29 13 -39 -14 -56 -44
-29 -94 19 -60 56 22 25 61 24 74 0z m-1626 -13 c16 -26 -4 -53 -40 -53 -23 0
-30 5 -32 23 -2 13 -1 30 2 38 8 20 56 14 70 -8z m1022 -72 c79 -79 136 -180
150 -264 5 -35 4 -41 -15 -47 -29 -9 -38 -1 -45 39 -14 74 -74 173 -147 240
-56 52 -69 69 -64 86 12 37 45 22 121 -54z m-1596 -31 c10 -12 10 -21 2 -40
-14 -30 -37 -32 -52 -5 -24 44 19 82 50 45z m145 -50 c0 -23 -5 -31 -22 -33
-17 -3 -24 3 -29 22 -8 32 3 48 29 44 17 -2 22 -10 22 -33z m-3545 -9 c16 -20
9 -56 -12 -70 -40 -24 -80 44 -42 71 23 17 39 16 54 -1z m812 -3 c22 -20 23
-70 1 -95 -21 -23 -34 -23 -67 3 -19 15 -26 30 -26 54 0 51 53 73 92 38z m376
5 c7 -7 12 -29 12 -50 0 -28 -5 -40 -21 -48 -19 -10 -20 -10 -10 9 16 28 14
49 -1 30 -34 -40 -57 -52 -73 -39 -22 18 -18 44 11 79 27 32 61 40 82 19z
m4290 -25 l-3 -38 -120 -3 c-153 -4 -183 2 -196 34 -5 14 -7 30 -3 35 3 5 77
9 165 9 l160 0 -3 -37z m120 25 c18 -18 14 -56 -6 -67 -24 -13 -65 7 -70 34
-7 34 50 59 76 33z m-5827 -141 c9 -7 19 -22 23 -34 9 -29 -37 -67 -65 -53
-28 16 -39 42 -27 65 20 36 42 43 69 22z m5693 -33 c19 -18 19 -17 4 -49 -13
-29 -48 -34 -72 -9 -22 21 -20 40 6 58 28 20 43 20 62 0z m-189 -14 c11 -36
-4 -62 -33 -58 -28 3 -40 32 -28 64 8 22 54 18 61 -6z m-5279 -27 c7 -25 -18
-63 -41 -63 -19 0 -47 37 -43 57 4 21 45 44 65 36 7 -3 16 -16 19 -30z m214 1
c0 -33 -35 -48 -81 -37 -26 7 -35 15 -37 35 -3 24 1 27 30 30 63 6 88 -2 88
-28z m5427 6 c7 -14 13 -46 13 -71 0 -29 6 -51 15 -59 21 -17 19 -37 -5 -50
-15 -8 -20 -21 -20 -50 0 -43 3 -47 45 -51 23 -3 32 1 40 18 13 31 63 29 76
-4 12 -33 62 -29 67 4 4 24 44 43 50 24 7 -21 34 -42 48 -37 10 4 14 -4 14
-29 0 -30 -3 -35 -23 -35 -16 0 -28 -9 -36 -27 l-13 -28 -21 26 c-20 24 -56
49 -72 49 -3 0 -10 -11 -15 -25 -7 -19 -17 -25 -40 -25 -18 0 -30 5 -30 13 0
25 -21 36 -49 26 -14 -6 -29 -16 -33 -22 -10 -16 -10 -77 0 -77 4 0 13 -4 20
-9 11 -7 11 -15 -2 -46 -9 -20 -16 -57 -16 -81 0 -53 -18 -94 -40 -94 -28 0
-40 23 -47 89 -5 53 -10 64 -29 71 -19 8 -43 47 -32 54 1 1 16 7 31 14 25 11
28 17 25 50 -3 32 -7 37 -31 40 -25 3 -28 7 -25 35 2 24 9 33 28 37 21 5 25
12 28 48 3 41 2 42 -27 42 -28 0 -31 3 -31 29 0 25 4 30 28 33 25 3 27 7 33
60 9 87 47 115 76 58z m-5227 -9 c0 -26 -4 -29 -41 -35 -45 -7 -69 5 -69 34 0
26 9 30 62 30 46 0 48 -1 48 -29z m-664 -137 c9 -51 -7 -100 -32 -95 -10 2
-37 4 -59 5 l-40 1 4 -105 c2 -58 4 -106 5 -107 1 -2 27 -4 58 -5 l56 -2 5
-40 c3 -22 3 -53 0 -69 -5 -25 -8 -27 -37 -21 -180 39 -248 246 -131 400 28
36 97 74 137 74 23 0 28 -5 34 -36z m180 1 c43 -25 83 -77 102 -134 37 -107
-24 -241 -130 -285 -60 -26 -84 -21 -92 15 -3 17 -6 44 -6 60 0 28 2 29 44 29
25 0 56 4 71 10 26 10 26 10 23 112 l-3 103 -38 3 c-21 2 -45 -2 -54 -9 -13
-11 -18 -10 -29 6 -15 20 -19 81 -8 110 9 22 63 13 120 -20z m5522 4 c4 -32
-18 -51 -55 -47 -20 2 -29 9 -31 26 -6 42 5 53 45 50 32 -3 38 -7 41 -29z
m-5240 -31 c-3 -32 -4 -33 -55 -36 -52 -3 -53 -3 -53 26 0 38 5 42 62 42 l49
0 -3 -32z m215 10 c18 -28 -9 -48 -63 -48 -48 0 -60 9 -60 45 0 28 106 31 123
3z m3867 -134 c33 -64 105 -141 167 -181 29 -18 53 -40 53 -49 0 -44 -81 -16
-163 56 -101 89 -160 220 -100 220 11 0 27 -18 43 -46z m1004 16 c16 -16 -3
-59 -29 -66 -31 -8 -55 10 -55 42 0 38 52 53 84 24z m154 -27 c-3 -37 -4 -38
-45 -41 -38 -3 -43 -1 -49 22 -11 44 1 56 51 56 l46 0 -3 -37z m-5593 -33 l0
-35 -80 0 -80 0 -3 38 -3 38 83 -3 83 -3 0 -35z m355 4 l0 -35 -42 3 c-37 3
-44 7 -46 27 -4 29 12 41 56 41 30 0 32 -2 32 -36z m4927 20 c13 -34 -109
-175 -190 -219 -30 -16 -38 -17 -51 -6 -9 8 -16 17 -16 21 0 4 26 27 58 52 32
25 78 72 103 106 45 63 82 81 96 46z m-4703 -9 c12 -33 -4 -45 -64 -45 -53 0
-58 2 -62 25 -3 13 -3 27 0 30 3 3 31 5 63 5 41 0 58 -4 63 -15z m4820 -111
c31 -31 13 -74 -31 -74 -21 0 -43 25 -43 49 0 14 29 41 45 41 7 0 21 -7 29
-16z m537 6 c11 -6 19 -21 19 -35 0 -27 -25 -45 -64 -45 -24 0 -26 4 -26 39 0
48 27 64 71 41z m179 -24 c0 -22 -31 -56 -52 -56 -29 0 -58 28 -58 56 0 17 7
23 28 26 35 4 82 -10 82 -26z m-520 -4 c0 -33 -16 -52 -45 -52 -27 0 -45 18
-45 45 0 30 8 35 52 35 35 0 38 -2 38 -28z m-4878 -7 c10 -22 9 -29 -10 -48
-18 -17 -26 -19 -40 -11 -21 14 -28 50 -12 70 19 22 49 17 62 -11z m-362 -34
c0 -31 -14 -41 -59 -41 -33 0 -51 16 -51 47 0 21 4 23 55 23 54 0 55 -1 55
-29z m215 -1 c0 -24 -3 -25 -60 -25 -58 0 -60 1 -63 28 l-3 28 63 -3 c60 -3
63 -4 63 -28z m678 -102 c6 -8 7 -27 3 -41 l-6 -27 -184 0 c-195 0 -216 5
-216 49 0 35 23 40 191 43 173 3 197 0 212 -24z m4741 6 c32 -12 11 -64 -25
-64 -22 0 -34 36 -19 55 14 17 21 18 44 9z m-555 -15 c27 -5 57 -19 66 -29 17
-19 17 -20 -7 -29 -13 -5 -30 -17 -38 -26 -20 -24 -48 -33 -140 -44 -131 -17
-208 -69 -254 -171 -56 -125 -41 -258 39 -348 58 -65 121 -94 211 -100 73 -5
73 -5 84 -38 6 -19 9 -37 6 -42 -3 -5 -35 -21 -71 -36 -80 -35 -105 -31 -222
30 -46 24 -86 44 -89 44 -2 0 -4 -6 -4 -14 0 -14 -36 -46 -52 -46 -18 0 -48
42 -48 65 0 18 9 31 30 43 16 9 29 19 27 22 -1 3 -20 40 -41 82 -32 63 -40 92
-44 151 -14 226 125 423 338 479 76 20 140 22 209 7z m721 -2 c0 -8 -9 -22
-20 -32 -19 -17 -22 -17 -37 -3 -9 9 -13 24 -10 32 8 20 67 22 67 3z m-5547
-12 c149 -31 280 -133 348 -270 48 -96 56 -158 24 -181 -47 -34 -88 -7 -99 66
-15 100 -98 205 -203 257 -53 25 -68 28 -163 28 -87 0 -113 -4 -153 -22 -72
-33 -155 -117 -191 -193 -27 -57 -31 -76 -31 -150 0 -57 6 -103 18 -137 26
-73 95 -164 155 -203 28 -18 53 -42 56 -55 7 -26 -3 -85 -14 -85 -17 0 -131
82 -176 127 -85 85 -143 226 -144 348 0 118 63 257 158 347 127 119 255 157
415 123z m4393 4 c18 -15 4 -49 -23 -60 -28 -10 -276 -12 -347 -3 -42 6 -46 9
-46 35 0 15 6 29 13 32 23 9 392 5 403 -4z m-5372 -5 c19 -7 21 -45 4 -62 -19
-19 -38 -14 -50 14 -11 22 -10 28 7 40 22 16 19 16 39 8z m513 -30 c3 -9 -4
-25 -16 -37 -17 -17 -25 -19 -39 -11 -42 27 -14 96 30 73 10 -6 22 -17 25 -25z
m-347 11 c6 -8 9 -23 5 -34 -14 -46 -73 -25 -61 22 7 30 36 36 56 12z m175 -8
c21 -16 13 -34 -20 -47 -46 -17 -90 15 -64 46 15 18 60 18 84 1z m5713 -97
c93 -57 95 -186 3 -247 -123 -83 -277 78 -194 203 40 62 128 82 191 44z
m-6198 0 c33 -18 44 -48 26 -74 -23 -35 -54 -39 -83 -10 -26 26 -25 58 5 82
19 15 28 15 52 2z m1606 -45 c16 -24 16 -27 -2 -46 -36 -40 -89 -4 -66 45 15
33 47 34 68 1z m3732 -10 c15 -32 6 -54 -24 -61 -41 -11 -65 25 -48 70 10 26
59 20 72 -9z m-4282 -39 c8 -34 -4 -66 -26 -66 -25 0 -43 63 -23 83 15 16 43
6 49 -17z m-556 -8 c39 -43 15 -108 -41 -108 -37 0 -73 44 -64 80 12 51 69 67
105 28z m-358 -15 c7 -28 -6 -68 -24 -71 -20 -4 -31 27 -22 62 7 30 39 36 46
9z m156 -18 c3 -37 -10 -58 -30 -50 -35 14 -26 90 10 83 11 -2 18 -14 20 -33z
m937 4 c16 -31 16 -31 -25 -70 -22 -21 -47 -39 -55 -39 -27 0 -27 39 1 90 32
59 56 64 79 19z m-343 4 c26 -29 30 -59 13 -77 -21 -20 -23 -20 -62 4 -37 22
-41 44 -16 72 20 23 45 23 65 1z m4863 -23 c17 -19 17 -21 0 -40 -23 -25 -41
-25 -55 -1 -13 25 -13 27 6 45 20 21 27 20 49 -4z m-5579 -133 c138 1 178 5
204 18 44 23 53 16 32 -25 -24 -49 -68 -70 -156 -77 l-74 -6 2 -35 c1 -35 2
-36 58 -47 68 -13 88 -28 88 -66 0 -38 -14 -44 -53 -21 -57 35 -125 38 -198 8
-14 -6 -17 4 -21 73 -3 45 -7 84 -11 87 -3 4 -27 10 -53 15 -54 10 -64 20 -64
65 0 42 7 46 44 26 26 -14 57 -17 202 -15z m905 -6 c35 -36 37 -64 4 -96 -47
-48 -125 -17 -125 50 0 42 28 66 83 74 5 0 22 -12 38 -28z m4839 9 c11 -11 20
-33 20 -50 0 -25 4 -30 24 -30 60 0 73 -37 36 -97 -49 -81 -157 -82 -223 -4
-49 58 -29 158 36 186 45 20 84 18 107 -5z m-5102 -26 c30 -21 26 -60 -9 -86
-53 -40 -112 21 -75 77 19 29 51 32 84 9z m514 -1 c53 -48 -22 -129 -78 -83
-33 29 -36 49 -10 75 29 29 62 32 88 8z m4876 -161 c13 -48 26 -102 29 -119 5
-30 3 -33 -21 -33 -39 0 -86 77 -86 141 0 43 27 99 48 99 4 0 17 -40 30 -88z
m-5732 -24 c-1 -68 -3 -73 -23 -76 -22 -3 -23 0 -23 66 0 73 3 82 31 82 14 0
17 -10 15 -72z m455 42 c30 -16 23 -55 -17 -100 -43 -47 -55 -49 -84 -13 l-21
27 48 48 c53 54 48 51 74 38z m281 -37 c42 -41 46 -57 21 -85 -21 -24 -44 -23
-77 3 -39 31 -50 66 -31 95 22 33 43 30 87 -13z m-1198 -75 c8 -22 6 -32 -9
-48 -39 -43 -93 -5 -73 52 9 25 15 29 41 26 24 -2 34 -10 41 -30z m6900 1 c36
-28 35 -54 -1 -44 -16 4 -45 8 -65 9 l-37 3 5 -38 c4 -23 1 -40 -6 -44 -21
-13 -5 107 16 122 26 19 57 16 88 -8z m-5849 -69 c14 -5 37 -22 50 -36 24 -25
25 -34 25 -141 l0 -113 -27 6 c-16 4 -30 9 -33 11 -3 3 -7 44 -10 91 l-5 87
-30 0 c-35 0 -43 -19 -44 -113 -1 -58 -3 -63 -28 -73 -37 -14 -43 0 -43 112 0
108 14 139 74 165 38 16 39 16 71 4z m5099 -49 c16 -18 15 -21 -36 -65 -29
-26 -81 -61 -115 -78 -50 -24 -64 -37 -73 -64 -12 -35 -27 -36 -63 -6 -15 13
-25 13 -70 3 -48 -12 -56 -11 -95 9 -23 12 -40 25 -38 29 2 3 24 21 48 38 44
31 44 31 68 12 32 -24 62 -24 85 1 16 18 64 34 90 30 5 -1 12 6 15 15 7 21
119 93 146 94 11 1 29 -7 38 -18z m-5459 -91 c22 -10 51 -28 65 -39 l25 -21
-50 0 c-71 -1 -123 -15 -151 -41 -40 -37 -31 -51 19 -29 33 15 65 20 150 20
l107 0 0 -29 0 -29 -97 -7 c-119 -9 -133 -15 -133 -59 0 -57 27 -71 136 -71
l94 0 0 -27 0 -28 -115 0 c-86 0 -123 4 -150 17 -40 19 -52 14 -33 -16 19 -32
70 -51 132 -51 31 0 56 -3 56 -7 0 -5 -26 -25 -58 -45 -78 -51 -137 -52 -206
-7 l-47 31 -222 -2 c-122 -2 -250 -2 -284 -1 l-63 1 0 195 0 195 290 0 c273 0
290 1 307 19 49 53 153 67 228 31z m5674 -15 l44 -35 283 0 284 0 0 -195 c0
-179 -1 -195 -17 -196 -10 0 -142 -2 -293 -2 l-275 -2 -45 -27 c-72 -44 -145
-36 -226 26 l-47 36 68 0 c74 0 116 18 134 57 12 27 5 29 -37 8 -23 -12 -57
-15 -144 -13 l-113 3 -3 28 -3 27 97 0 c111 0 134 11 134 65 0 53 -22 64 -135
67 -79 2 -100 6 -102 18 -6 33 12 39 117 41 91 2 111 -1 148 -20 29 -15 42
-17 42 -9 -1 43 -73 78 -157 78 l-57 0 35 26 c54 41 89 53 159 54 59 0 69 -3
109 -35z m835 -135 c8 0 25 -12 40 -26 39 -40 37 -103 -5 -138 -43 -36 -91
-35 -130 3 -31 32 -39 84 -18 122 12 23 67 51 87 44 8 -3 19 -5 26 -5z m-7463
-29 c38 -39 40 -96 4 -135 -33 -36 -100 -37 -139 -1 -36 34 -37 105 -1 140 36
37 97 35 136 -4z m6163 -1 c26 -9 26 -11 26 -113 l0 -104 41 -13 c97 -32 193
-128 244 -243 27 -63 48 -167 43 -218 -3 -31 -6 -34 -39 -37 l-36 -3 -6 73
c-8 105 -38 177 -104 249 -81 87 -143 115 -143 63 0 -19 8 -28 34 -39 42 -18
116 -99 147 -162 20 -40 24 -63 24 -138 0 -84 -2 -95 -34 -153 -49 -90 -142
-160 -234 -177 -21 -4 -34 -11 -30 -18 4 -6 41 -8 103 -4 92 6 99 5 117 -16
28 -31 36 -59 21 -69 -15 -9 -364 -11 -461 -1 -82 7 -99 25 -65 68 21 27 22
27 104 20 46 -4 93 -4 105 0 18 6 12 11 -37 27 -132 44 -223 152 -247 291
l-11 64 -40 9 c-57 13 -71 44 -56 122 12 61 60 163 92 199 l20 22 -28 24 c-26
23 -28 27 -15 50 13 24 18 26 90 25 42 0 87 0 101 1 33 1 54 -21 46 -52 -7
-30 -40 -38 -119 -30 -55 6 -57 5 -57 -18 0 -14 7 -35 16 -47 14 -21 13 -26
-21 -80 -38 -61 -60 -126 -50 -142 13 -22 35 -8 53 33 11 24 33 59 51 79 32
36 39 62 21 73 -18 11 -11 45 9 45 11 0 23 -4 26 -10 11 -18 64 -11 115 15 28
14 50 21 50 16 0 -13 63 -25 89 -16 32 10 26 41 -10 55 -24 10 -36 11 -50 2
-41 -26 -99 -3 -99 39 0 43 39 65 89 50 72 -21 71 -22 71 87 0 85 4 112 16
112 1 0 14 -4 28 -10z m-103 -21 c36 -36 4 -119 -46 -119 -46 0 -69 53 -46
108 11 26 19 32 42 32 16 0 38 -9 50 -21z m-4819 -154 c3 -134 7 -168 20 -181
12 -13 20 -14 37 -5 20 11 21 19 21 181 0 170 0 170 23 170 43 0 45 -9 47
-160 3 -228 4 -218 -34 -256 -25 -25 -43 -34 -68 -34 -42 0 -96 32 -108 66
-11 27 -14 325 -4 362 5 16 14 22 34 22 l28 0 4 -165z m-122 115 l0 -30 -82 0
c-101 0 -128 7 -128 31 0 16 10 19 73 22 39 1 87 4 105 5 29 2 32 0 32 -28z
m5330 15 c23 -27 0 -35 -106 -35 l-104 0 0 25 c0 25 0 25 99 25 74 0 102 -4
111 -15z m-5305 -224 c9 -40 -6 -63 -68 -110 -60 -45 -83 -74 -122 -151 -55
-108 -43 -266 28 -369 45 -65 73 -90 146 -124 83 -39 194 -42 284 -7 137 52
232 180 244 327 7 92 -7 149 -62 245 -25 43 -45 80 -45 83 0 2 18 14 39 25 38
19 40 19 63 1 51 -41 109 -193 115 -306 12 -199 -118 -403 -302 -472 l-75 -28
0 -61 c0 -34 -3 -76 -6 -93 l-6 -31 -133 0 c-112 0 -134 2 -139 16 -3 9 -6 55
-6 102 l-1 87 -61 35 c-273 157 -307 564 -63 770 43 36 136 90 157 90 3 0 9
-13 13 -29z m-447 -63 c19 -19 15 -66 -8 -78 -46 -25 -91 39 -50 72 26 21 41
23 58 6z m6224 -65 l3 -78 115 -5 115 -5 3 -26 3 -27 -133 -3 c-73 -2 -202 -2
-285 0 l-153 3 0 30 0 29 130 -3 130 -3 0 45 c0 25 3 62 6 83 6 33 10 37 35
37 l28 0 3 -77z m-6597 30 c10 -61 13 -65 42 -61 26 3 28 7 31 51 3 47 4 48
35 45 30 -3 32 -6 42 -64 18 -99 43 -123 145 -136 24 -3 61 -51 48 -63 -3 -4
-26 -9 -50 -11 -102 -11 -104 -12 -148 -69 -55 -71 -70 -71 -70 -1 l0 54 -77
45 c-43 25 -90 50 -105 56 -16 6 -28 12 -28 15 0 2 11 28 25 58 14 29 25 62
25 74 0 28 19 44 52 44 24 0 28 -5 33 -37z m6433 9 c7 -47 -47 -72 -68 -32
-16 31 4 62 38 58 19 -2 28 -10 30 -26z m327 -7 c0 -26 -4 -30 -32 -33 -25 -2
-33 1 -38 18 -9 28 12 52 44 48 22 -2 26 -8 26 -33z m-5921 -136 c14 -17 26
-38 26 -48 0 -25 -40 -59 -75 -63 -29 -3 -30 -5 -33 -55 -7 -113 69 -212 178
-234 42 -8 64 -18 71 -31 19 -36 4 -48 -58 -48 -157 0 -293 149 -281 309 6 91
74 201 124 201 13 0 33 -13 48 -31z m364 -15 c60 -67 -19 -168 -94 -119 -55
36 -56 102 -1 135 37 23 63 19 95 -16z m5186 -109 c44 -44 20 -95 -45 -95 -29
0 -42 6 -58 26 -26 33 -26 39 -1 64 24 24 82 27 104 5z m206 -175 l0 -190 -28
0 -29 0 -6 98 c-9 126 -9 267 0 275 3 4 19 7 35 7 l28 0 0 -190z m217 175 c31
-22 35 -52 10 -75 -38 -36 -117 -17 -117 28 0 54 60 80 107 47z m-6877 -30
c19 -23 -3 -65 -34 -65 -32 0 -50 24 -42 55 5 19 13 25 35 25 16 0 34 -7 41
-15z m454 -16 c3 -17 6 -51 6 -75 0 -41 -2 -45 -41 -65 -23 -11 -60 -37 -82
-58 -99 -90 -192 -162 -206 -159 -17 3 -26 46 -17 82 9 37 292 306 322 306 6
0 14 -14 18 -31z m4970 -26 c13 -89 36 -152 82 -218 l45 -67 -26 -34 c-14 -19
-28 -34 -30 -34 -13 0 -99 138 -116 187 -29 85 -36 174 -15 196 33 32 53 22
60 -30z m-4184 -93 c11 -11 20 -29 20 -40 0 -11 -9 -29 -20 -40 -11 -11 -29
-20 -40 -20 -11 0 -29 9 -40 20 -11 11 -20 29 -20 40 0 11 9 29 20 40 11 11
29 20 40 20 11 0 29 -9 40 -20z m-1041 -9 c21 -13 4 -31 -30 -31 -27 0 -39 17
-22 33 9 10 35 8 52 -2z m6029 -7 c42 -12 18 -105 -52 -201 -35 -48 -61 -54
-77 -19 -10 21 -7 31 20 70 18 25 38 65 47 88 8 24 16 49 19 56 5 14 10 14 43
6z m238 -39 c19 -30 9 -66 -24 -84 -26 -14 -72 21 -72 54 0 54 67 75 96 30z
m392 5 c26 -25 27 -38 6 -68 -18 -26 -50 -28 -76 -5 -25 22 -23 59 4 77 29 21
40 20 66 -4z m-6869 0 c28 -14 34 -40 15 -61 -22 -24 -51 -24 -64 0 -14 27
-13 37 6 55 18 19 20 19 43 6z m467 -43 c17 -15 27 -33 27 -51 0 -33 -38 -76
-68 -76 -79 0 -91 115 -15 143 25 9 28 8 56 -16z m6036 -168 c147 -31 238
-143 238 -292 0 -85 -23 -143 -78 -200 -55 -58 -105 -80 -192 -85 -97 -6 -160
19 -224 88 -96 103 -108 231 -33 358 47 79 120 124 229 141 4 1 31 -4 60 -10z
m-6334 -113 c4 -19 -24 -56 -41 -56 -16 0 -47 31 -47 47 0 7 9 22 21 34 18 18
23 19 42 6 12 -8 24 -22 25 -31z m1594 16 c5 -5 8 -22 6 -38 l-3 -29 -195 0
-195 0 -10 28 c-8 24 -6 31 10 44 17 12 51 14 199 10 98 -3 182 -9 188 -15z
m3720 6 c24 -20 28 -44 12 -67 -14 -20 -23 -21 -190 -21 -161 0 -176 2 -194
20 -24 24 -24 29 -4 58 15 21 21 22 188 22 123 0 177 -4 188 -12z m-4748 -28
c3 -16 3 -43 0 -60 l-6 -30 -214 0 c-247 0 -234 6 -234 -104 0 -76 -7 -80 -71
-44 -33 18 -39 27 -39 55 0 19 6 46 14 62 16 30 90 101 106 101 6 0 15 11 20
25 l10 25 204 0 204 0 6 -30z m5060 -26 c20 -8 21 -57 1 -74 -33 -27 -73 8
-61 53 6 27 26 34 60 21z m200 -16 c13 -19 14 -25 2 -43 -20 -30 -58 -26 -70
7 -18 51 37 80 68 36z m-406 -12 c-7 -8 -15 -12 -17 -11 -5 6 10 25 20 25 5 0
4 -6 -3 -14z m36 -1 c3 -8 1 -15 -4 -15 -6 0 -10 7 -10 15 0 8 2 15 4 15 2 0
6 -7 10 -15z m-4334 -25 c25 -25 25 -35 -1 -61 -18 -18 -23 -19 -42 -6 -29 19
-33 44 -11 68 22 24 29 24 54 -1z m540 -75 c23 -28 -9 -72 -45 -59 -36 14 -24
74 15 74 10 0 23 -7 30 -15z m-276 -51 c8 -22 7 -87 -2 -100 -4 -6 -33 -19
-64 -28 -69 -20 -110 -65 -134 -144 -18 -65 -13 -86 18 -77 37 11 45 25 20 31
-27 8 -27 17 -3 69 23 52 71 93 119 100 63 11 62 9 62 90 0 71 1 75 23 75 62
0 201 -98 227 -159 l12 -29 61 29 c34 16 72 29 85 29 l22 0 0 -184 0 -183 -72
-6 c-73 -7 -73 -7 -123 -61 -27 -29 -63 -62 -80 -74 -26 -17 -124 -52 -147
-52 -4 0 -8 31 -8 69 l0 68 38 7 c56 8 124 72 152 140 21 53 21 56 5 113 -13
45 -28 69 -67 108 -63 62 -76 44 -14 -20 52 -53 75 -113 51 -131 -19 -14 -19
-24 0 -24 44 0 -30 -115 -95 -147 -81 -42 -154 -27 -234 46 l-30 26 21 -35
c28 -46 78 -80 119 -80 l34 0 0 -71 0 -71 -27 6 c-85 21 -107 30 -160 70 -32
24 -70 58 -85 74 -26 30 -41 35 -130 47 -31 4 -48 11 -48 20 0 27 13 47 36 56
24 8 24 11 24 144 0 74 3 135 8 135 4 0 25 -7 48 -15 l41 -14 64 63 c88 85
216 135 233 90z m-1090 -16 c16 -62 3 -108 -30 -108 -23 0 -24 3 -24 59 0 57
6 68 36 70 7 1 14 -9 18 -21z m170 6 c3 -9 6 -38 6 -65 0 -48 -1 -49 -30 -49
-29 0 -30 1 -30 49 0 62 7 81 30 81 10 0 21 -7 24 -16z m184 -86 c7 -7 12 -24
12 -39 0 -48 -74 -50 -86 -3 -11 43 42 74 74 42z m256 -22 c-4 -26 10 -44 21
-26 3 5 2 10 -3 10 -6 0 -8 10 -4 22 5 21 6 21 13 2 15 -38 10 -54 -16 -54
-22 0 -25 4 -25 35 0 19 4 35 9 35 5 0 8 -11 5 -24z m-762 -52 c14 -31 1 -57
-31 -62 -29 -5 -51 15 -51 44 0 45 63 59 82 18z m5116 -63 c66 -34 127 -95
153 -154 19 -41 24 -70 24 -137 0 -136 -22 -168 -291 -410 -278 -251 -312
-288 -299 -331 10 -30 65 -89 94 -101 15 -5 124 -9 250 -9 230 1 251 -3 251
-39 0 -35 -26 -42 -153 -44 -121 -1 -122 -1 -125 -25 -2 -14 2 -52 9 -85 12
-59 12 -59 -15 -83 -34 -29 -47 -29 -76 1 -18 20 -21 31 -15 53 4 15 9 54 12
86 l5 57 -75 0 c-42 0 -87 4 -101 10 -16 6 -26 6 -26 0 0 -16 -61 -80 -91 -96
-42 -21 -118 -18 -169 9 -54 27 -80 61 -87 114 -5 35 -2 43 16 52 24 13 41 7
41 -14 0 -8 17 -32 38 -55 43 -44 73 -50 122 -25 59 31 70 94 25 139 -17 16
-19 16 -46 -10 l-29 -28 -25 24 c-46 43 -25 87 48 106 20 4 35 20 52 54 24 47
101 123 385 383 134 122 178 175 189 228 8 37 -4 118 -18 132 -6 6 -43 -21
-98 -70 -48 -44 -128 -112 -176 -152 l-89 -73 47 -48 c45 -46 46 -49 27 -59
-33 -18 -64 -13 -106 15 -43 29 -43 29 -76 -41 -12 -25 -20 -62 -20 -97 0 -60
-9 -70 -41 -45 -59 45 -51 165 17 255 l26 34 -21 64 c-61 187 20 364 198 431
55 20 185 12 239 -16z m-4881 -77 c29 -4 50 -11 47 -15 -3 -5 2 -9 10 -9 9 0
16 -8 17 -17 0 -15 2 -15 8 2 5 11 6 23 4 28 -2 4 85 6 194 5 l198 -3 0 -25 0
-25 -217 -2 c-246 -2 -235 1 -291 -90 -33 -52 -39 -56 -65 -37 -14 10 -22 26
-22 45 0 21 -5 29 -18 29 -28 0 -42 21 -42 62 0 25 6 40 18 47 20 12 84 14
159 5z m5922 -106 c14 -24 14 -28 -3 -47 -11 -12 -26 -21 -34 -21 -23 0 -52
30 -52 55 0 50 63 60 89 13z m-4241 -8 c27 -26 28 -54 2 -80 -25 -25 -52 -26
-72 -2 -26 30 -28 50 -7 76 25 31 48 33 77 6z m2437 -10 c0 -28 -30 -40 -49
-20 -8 9 -6 11 11 6 12 -4 24 -2 28 3 3 6 0 9 -7 6 -18 -7 -42 10 -33 24 4 7
17 11 28 9 16 -2 22 -10 22 -28z m-3906 -86 c28 -36 26 -58 -5 -83 -33 -26
-58 -27 -84 -1 -27 27 -26 75 2 94 33 23 64 19 87 -10z m5566 -58 c21 -39 9
-71 -33 -87 -51 -20 -106 55 -71 98 34 40 79 35 104 -11z m-251 18 c19 -18 19
-20 6 -45 -8 -13 -21 -19 -45 -19 -33 0 -35 2 -35 34 0 19 6 37 13 39 24 10
46 7 61 -9z m-5480 -86 c12 -20 2 -44 -27 -62 -36 -23 -75 36 -46 70 16 19 59
14 73 -8z m3719 -94 c180 -91 141 -354 -55 -380 -68 -9 -149 31 -189 94 -65
103 -16 244 101 291 39 15 108 13 143 -5z m417 -18 c0 -25 -15 -37 -37 -28
-14 4 -18 34 -6 45 3 4 15 7 25 7 12 0 18 -7 18 -24z m-184 -11 c12 -48 -44
-77 -66 -35 -15 28 4 60 35 60 18 0 26 -7 31 -25z m-3811 -5 c24 -27 13 -68
-22 -76 -50 -13 -76 50 -35 84 22 17 36 15 57 -8z m4025 -93 c123 -82 79 -261
-67 -274 -60 -5 -108 18 -141 67 -20 29 -23 45 -20 92 5 61 20 87 73 119 42
27 113 25 155 -4z m760 -62 c53 -27 61 -81 14 -99 -25 -10 -29 -8 -67 29 -43
42 -45 49 -15 69 28 20 32 20 68 1z m-180 -236 l0 -190 -42 3 -43 3 -3 149 -3
148 38 42 c21 24 41 41 46 39 4 -2 7 -90 7 -194z m-4616 119 c8 -14 6 -22 -10
-38 -23 -24 -50 -18 -59 11 -14 43 45 65 69 27z m5494 -9 c2 -14 -4 -31 -13
-39 -13 -11 -19 -10 -35 5 -23 21 -25 36 -8 53 21 21 53 10 56 -19z m-461 0
c85 -53 82 -178 -6 -224 -54 -28 -122 -11 -166 41 -18 21 -30 24 -105 26 l-85
3 -3 33 -3 32 85 0 85 0 17 36 c33 70 115 94 181 53z m209 -14 c13 -52 -56
-79 -78 -30 -14 32 4 55 43 55 22 0 30 -6 35 -25z m-3705 5 c36 -20 13 -79
-25 -64 -22 8 -21 74 1 74 3 0 13 -5 24 -10z m-143 -12 c33 -33 -10 -99 -49
-77 -28 15 -36 59 -14 76 23 16 47 17 63 1z m-1087 -30 c8 -14 6 -25 -6 -44
-19 -29 -46 -31 -69 -5 -23 25 -17 52 13 67 28 15 48 9 62 -18z m-227 -4 c19
-18 19 -20 6 -45 -24 -43 -82 -9 -62 36 13 29 34 32 56 9z m5326 -4 c22 -40
-26 -80 -58 -48 -25 25 -6 68 30 68 9 0 22 -9 28 -20z m-4152 -46 c4 -25 -22
-49 -43 -40 -9 3 -15 18 -15 36 0 28 3 31 28 28 18 -2 28 -9 30 -24z m2508
-30 c7 -28 -10 -54 -36 -54 -32 0 -42 62 -13 78 23 14 42 4 49 -24z m-3301 -4
c15 -17 16 -24 7 -45 -14 -29 -66 -36 -76 -9 -23 59 28 99 69 54z m445 -25
c10 -12 10 -21 2 -40 -15 -33 -49 -33 -64 1 -11 22 -10 28 7 40 24 18 40 18
55 -1z m580 -34 c0 -30 -26 -46 -56 -34 -20 7 -18 60 3 72 26 14 53 -5 53 -38z
m1900 29 c11 -11 20 -23 20 -28 0 -17 -32 -52 -47 -52 -21 0 -53 29 -53 47 0
15 35 53 50 53 6 0 19 -9 30 -20z m-2619 -36 c30 -26 58 -53 63 -61 13 -24 2
-136 -15 -142 -7 -2 -31 -22 -52 -43 -34 -35 -42 -38 -90 -38 -48 1 -56 4
-104 50 l-53 49 0 75 c0 42 4 76 9 76 6 0 31 18 56 40 38 33 54 40 89 40 36 0
50 -7 97 -46z m483 -35 c18 -21 26 -42 26 -69 0 -27 -8 -48 -26 -69 -26 -31
-26 -31 -129 -31 -103 0 -103 0 -129 31 -37 44 -36 101 3 140 29 28 32 29 129
29 100 0 100 0 126 -31z m566 -88 c62 -45 88 -149 56 -224 -14 -35 -65 -83
-102 -97 -17 -7 -24 -20 -30 -55 -5 -40 -9 -46 -28 -43 -17 2 -22 11 -24 49
-3 42 -6 47 -32 52 -40 8 -97 61 -111 104 -19 58 -7 137 28 181 55 68 173 85
243 33z m-383 -28 c2 -5 -5 -20 -15 -33 -16 -19 -22 -21 -40 -11 -27 14 -29
56 -4 70 18 10 52 -5 59 -26z m607 14 c12 -9 17 -23 14 -42 -2 -24 -8 -31 -30
-33 -22 -3 -30 2 -40 22 -9 22 -8 29 7 46 21 24 25 24 49 7z m2374 -165 c3
-16 -2 -22 -16 -22 -21 0 -36 25 -26 41 10 17 39 5 42 -19z m-2359 -42 c20
-39 20 -40 1 -50 -26 -14 -40 -13 -40 4 0 8 -11 28 -25 44 -32 39 -32 42 9 42
29 0 37 -5 55 -40z m-1139 15 c16 -19 9 -45 -17 -62 -19 -13 -24 -12 -42 6
-18 18 -19 25 -9 46 13 28 48 34 68 10z m309 1 c6 -4 11 -36 11 -76 0 -53 -4
-69 -16 -74 -9 -3 -58 -6 -109 -6 l-94 0 -6 55 c-11 82 -2 103 43 108 49 6
157 1 171 -7z m201 -37 l0 -50 -32 3 c-29 3 -33 7 -36 36 -5 49 3 62 38 62 29
0 30 -1 30 -51z m2912 -16 c33 -30 17 -83 -26 -83 -23 0 -56 27 -56 47 0 16
36 53 52 53 6 0 20 -7 30 -17z m-2097 -108 c30 -29 32 -68 4 -96 -28 -28 -76
-22 -102 13 -17 23 -18 31 -8 56 22 52 69 65 106 27z m1030 -18 c20 -48 -7
-97 -54 -97 -32 0 -44 8 -60 37 -16 31 -14 57 7 75 39 35 89 28 107 -15z
m-1793 -4 c23 -21 23 -45 -1 -67 -26 -24 -54 -17 -66 18 -8 24 -6 31 14 47 28
23 30 23 53 2z m493 -33 c0 -31 -3 -35 -25 -35 -19 0 -26 6 -28 23 -5 36 5 54
30 50 19 -2 23 -9 23 -38z m-690 -4 c29 -43 -18 -94 -56 -60 -25 23 -24 49 3
68 30 21 35 20 53 -8z m2907 -2 c13 -28 5 -49 -25 -68 -13 -9 -22 -5 -43 16
-26 26 -27 27 -10 52 22 35 62 35 78 0z m-2554 -56 c28 -28 3 -84 -34 -76 -28
5 -40 33 -26 62 12 28 40 34 60 14z m1756 -54 c34 -33 10 -70 -41 -65 -24 2
-33 36 -17 59 18 26 37 28 58 6z m-1299 -29 c0 -25 -4 -31 -26 -33 -32 -4 -53
20 -44 48 5 17 13 20 38 18 28 -3 32 -7 32 -33z m-259 0 c20 -30 11 -62 -22
-77 -47 -22 -84 43 -47 84 22 25 50 23 69 -7z m269 -90 c14 -13 25 -35 25 -47
0 -66 -78 -94 -119 -42 -29 37 -26 58 10 88 38 32 53 33 84 1z m1303 -5 c43
-41 13 -110 -47 -110 -30 0 -71 38 -71 65 0 7 9 24 21 39 25 32 66 34 97 6z
m-621 -345 c53 -61 7 -155 -75 -155 -33 0 -45 6 -66 31 -37 43 -35 91 4 131
28 27 36 30 73 25 28 -4 49 -14 64 -32z"/>
<path d="M5080 8519 c-14 -26 -6 -65 16 -73 23 -9 64 20 64 44 0 45 -60 67
-80 29z"/>
<path d="M5080 7965 c-8 -10 -10 -26 -5 -47 4 -18 7 -210 5 -425 l-3 -393 32
0 31 0 0 382 c0 269 4 391 12 414 9 25 9 39 0 59 -13 29 -52 34 -72 10z"/>
<path d="M4963 7618 c-5 -8 -8 -121 -7 -268 l2 -255 25 -3 25 -3 4 258 c5 253
2 283 -27 283 -7 0 -17 -6 -22 -12z"/>
<path d="M5221 7621 c-11 -7 -13 -57 -12 -262 1 -140 5 -257 9 -261 4 -4 17
-5 29 -2 21 6 22 9 25 253 2 135 0 254 -5 264 -8 19 -24 22 -46 8z"/>
<path d="M4900 6915 c-296 -41 -597 -163 -833 -338 -170 -126 -381 -357 -487
-532 -192 -320 -282 -694 -251 -1052 23 -266 70 -436 186 -668 99 -199 181
-311 350 -480 267 -268 542 -421 905 -502 170 -38 434 -44 613 -13 372 63 670
212 939 469 385 368 578 808 579 1316 0 310 -53 537 -189 810 -143 288 -408
574 -697 753 -324 200 -740 288 -1115 237z m435 -147 c4 -4 3 -29 -2 -55 l-8
-48 -40 5 c-61 8 -285 6 -332 -3 -46 -8 -46 -8 -58 65 -6 30 -4 37 12 41 27 8
420 3 428 -5z m-635 -101 c7 -22 8 -42 4 -47 -5 -4 -49 -24 -98 -43 -48 -20
-117 -54 -151 -76 l-64 -39 -30 46 c-21 33 -27 50 -20 58 26 31 327 160 340
146 4 -4 12 -24 19 -45z m940 24 c79 -26 254 -122 258 -142 1 -8 -13 -31 -30
-51 l-33 -38 -62 40 c-35 22 -104 59 -155 81 -51 22 -94 42 -95 43 -7 6 34 96
42 93 5 -2 39 -14 75 -26z m-258 -150 c48 -11 122 -34 164 -51 77 -31 188 -92
199 -110 8 -12 -5 -35 -78 -146 l-60 -91 -29 16 c-15 9 -28 19 -28 23 0 4 20
42 45 84 25 41 45 80 45 85 0 12 -111 62 -205 92 -236 74 -515 58 -760 -45
-44 -19 -81 -40 -83 -49 -1 -8 18 -46 42 -84 25 -39 46 -73 46 -77 0 -4 -13
-16 -29 -27 l-28 -20 -33 52 c-77 122 -110 177 -110 186 0 14 119 77 217 115
80 31 191 59 283 70 80 10 317 -4 402 -23z m-1005 -278 c53 -62 108 -129 122
-148 l25 -36 -29 -24 -30 -23 -54 74 c-29 41 -60 74 -68 74 -7 0 -37 -21 -65
-47 l-50 -48 -35 40 c-84 95 -173 203 -173 208 0 3 37 38 82 78 l82 72 48 -54
c26 -30 92 -105 145 -166z m1771 123 c28 -28 52 -54 52 -60 0 -9 -88 -120
-156 -195 l-41 -45 -54 47 c-29 26 -57 47 -60 47 -3 0 -34 -34 -69 -76 l-62
-75 -24 22 c-13 12 -24 25 -24 29 0 14 152 200 264 322 l70 77 26 -22 c14 -12
49 -44 78 -71z m-869 -17 c36 -6 70 -15 75 -19 4 -5 3 -24 -4 -44 -9 -27 -16
-35 -28 -32 -95 27 -244 33 -358 13 l-72 -13 -11 35 c-6 19 -8 37 -5 40 26 27
286 40 403 20z m-1345 -320 c11 -16 12 -27 4 -45 -18 -40 -52 -41 -76 -3 -11
17 -11 25 3 45 19 30 49 31 69 3z m2420 5 c23 -23 19 -51 -9 -70 -24 -16 -27
-16 -45 1 -11 10 -20 26 -20 36 0 21 26 49 45 49 7 0 21 -7 29 -16z m-1266
-110 c3 -19 -3 -23 -47 -29 -72 -10 -131 2 -131 25 0 16 9 20 53 23 100 7 122
4 125 -19z m237 -9 c0 -18 -6 -20 -85 -19 -80 0 -85 2 -88 23 -3 21 -2 22 85
19 80 -3 88 -5 88 -23z m-972 -191 c88 -20 182 -62 251 -111 75 -53 167 -135
164 -145 -2 -5 -62 -58 -133 -118 l-130 -109 -25 32 c-44 57 -84 90 -149 120
-54 26 -77 31 -140 30 -206 -1 -333 -134 -332 -350 0 -136 45 -230 138 -292
146 -97 327 -74 445 57 20 22 44 56 54 74 9 18 18 34 19 36 2 2 69 -50 149
-114 l146 -118 -23 -24 c-40 -43 -151 -130 -217 -170 -340 -206 -777 -112
-963 208 -65 113 -82 183 -82 350 0 122 4 156 22 215 65 205 240 368 455 425
93 24 252 26 351 4z m965 -623 c2 -332 1 -619 -3 -638 l-6 -33 -159 0 -160 0
0 640 0 640 163 -2 162 -3 3 -604z m1332 454 l0 -155 -185 0 -185 0 0 -485 0
-485 -162 2 -163 3 -3 483 -2 482 -194 0 -193 0 -7 145 c-4 80 -4 150 -1 155
4 6 213 10 551 10 l544 0 0 -155z m-1560 -1310 c0 -25 -1 -25 -90 -25 -89 0
-90 0 -90 25 0 25 1 25 90 25 89 0 90 0 90 -25z m230 0 c0 -25 -1 -25 -84 -25
-84 0 -96 5 -96 41 0 5 41 9 90 9 89 0 90 0 90 -25z m517 -161 l47 -64 25 22
c14 13 40 35 56 50 l31 28 99 -115 c55 -64 101 -121 103 -128 2 -11 -137 -137
-152 -137 -9 0 -197 209 -290 324 l-48 59 29 23 c33 27 36 25 100 -62z m-1345
59 c24 -22 23 -31 -15 -79 -66 -85 -282 -319 -293 -318 -7 1 -46 30 -87 64
-87 73 -87 63 0 160 32 36 75 85 95 109 l37 43 58 -51 c53 -48 59 -50 71 -34
36 51 98 122 106 123 5 0 18 -7 28 -17z m-554 -35 c17 -17 15 -48 -5 -70 -20
-22 -31 -23 -55 -1 -34 31 -17 83 27 83 12 0 26 -5 33 -12z m2415 -9 c19 -26
10 -58 -19 -71 -19 -9 -28 -8 -44 7 -24 22 -25 42 -3 67 21 24 48 23 66 -3z
m-668 -153 l69 -109 -30 -23 c-82 -66 -290 -143 -443 -165 -114 -16 -333 -6
-437 20 -140 35 -364 136 -364 165 0 13 141 226 149 226 3 -1 17 -9 30 -20
l23 -20 -46 -74 c-25 -40 -46 -78 -46 -82 0 -14 30 -30 124 -68 158 -63 201
-71 406 -71 149 0 197 4 245 18 64 20 251 92 274 106 11 7 5 23 -31 78 -24 37
-48 74 -52 82 -9 14 44 65 55 53 3 -4 37 -56 74 -116z m-658 -37 c77 -12 173
-6 284 17 20 5 27 0 37 -21 22 -48 17 -52 -75 -69 -110 -20 -203 -20 -313 -1
-47 8 -86 15 -88 15 -5 0 9 62 15 73 3 5 17 6 32 3 14 -3 63 -11 108 -17z
m-593 -183 c39 -29 154 -87 224 -111 56 -20 59 -28 40 -82 -8 -23 -18 -33 -33
-33 -46 1 -294 117 -323 153 -9 11 -5 23 19 55 17 23 33 42 36 42 4 0 20 -11
37 -24z m1436 -22 c32 -45 33 -47 14 -61 -57 -43 -287 -143 -329 -143 -12 0
-37 79 -29 92 3 5 11 8 18 8 18 0 205 94 246 124 19 14 38 25 41 26 3 0 21
-21 39 -46z m-755 -169 c50 0 118 4 151 8 l61 8 7 -52 c4 -28 5 -53 4 -55 -18
-17 -406 -14 -435 4 -7 4 -9 26 -6 55 l6 48 61 -8 c33 -4 102 -8 151 -8z"/>
<path d="M4168 6323 l-27 -28 39 -44 c36 -41 41 -44 65 -33 41 19 41 38 0 87
-20 25 -40 45 -44 45 -4 0 -19 -12 -33 -27z"/>
<path d="M5982 6298 c-18 -23 -32 -45 -32 -49 0 -4 12 -17 27 -29 l26 -21 43
48 42 48 -21 23 c-30 32 -48 28 -85 -20z"/>
<path d="M5970 4005 c-26 -28 -28 -23 39 -97 l25 -28 23 22 c13 12 23 26 23
31 0 11 -70 97 -79 97 -4 0 -18 -11 -31 -25z"/>
<path d="M4178 3976 l-37 -43 30 -29 29 -28 45 49 44 50 -25 23 c-14 12 -31
22 -37 22 -7 0 -29 -20 -49 -44z"/>
<path d="M6985 6872 c-27 -5 -62 -39 -69 -67 -9 -35 9 -73 46 -95 39 -24 63
-19 101 21 60 64 8 158 -78 141z"/>
<path d="M4960 3093 c0 -182 -8 -411 -14 -428 -5 -14 0 -27 15 -43 21 -23 22
-23 39 -5 15 16 16 43 12 271 l-4 252 -24 0 c-22 0 -24 -4 -24 -47z"/>
<path d="M5087 3133 c-4 -3 -7 -188 -7 -410 0 -268 -4 -411 -11 -424 -8 -16
-7 -26 6 -45 29 -45 95 -17 79 35 -4 14 -9 212 -11 439 l-3 412 -24 0 c-12 0
-26 -3 -29 -7z"/>
<path d="M5208 2894 c-2 -135 0 -254 4 -265 8 -21 41 -26 54 -6 5 6 8 126 6
265 l-4 252 -28 0 -29 0 -3 -246z"/>
<path d="M5086 1794 c-39 -39 -4 -95 45 -71 29 15 36 49 14 71 -21 20 -39 20
-59 0z"/>
<path d="M6081 8416 c-22 -24 -22 -25 -3 -35 22 -12 42 2 42 30 0 29 -15 30
-39 5z"/>
<path d="M5961 8096 c-7 -8 -11 -25 -9 -38 2 -18 9 -23 32 -23 36 0 56 27 40
53 -14 22 -48 27 -63 8z"/>
<path d="M7513 7502 c-7 -4 -15 -22 -19 -39 -5 -26 -2 -34 21 -49 25 -16 30
-16 54 -3 47 27 35 99 -17 99 -15 0 -33 -4 -39 -8z"/>
<path d="M1710 5146 c-28 -34 11 -93 47 -70 32 20 39 41 19 63 -22 24 -49 27
-66 7z"/>
<path d="M8455 5136 c-34 -51 34 -95 69 -44 13 19 14 25 2 43 -20 30 -52 31
-71 1z"/>
<path d="M7430 4612 c-120 -63 -72 -252 63 -252 104 0 168 94 127 187 -33 76
-116 104 -190 65z m107 -88 c15 -24 15 -29 2 -53 -11 -19 -23 -26 -44 -26 -21
0 -33 7 -44 26 -13 24 -13 29 2 53 11 16 27 26 42 26 15 0 31 -10 42 -26z"/>
<path d="M2630 3989 c0 -39 0 -39 39 -39 40 0 51 11 51 51 0 14 -7 19 -27 20
-16 0 -36 2 -45 4 -15 3 -18 -4 -18 -36z"/>
<path d="M2080 4261 c-19 -37 4 -60 44 -45 33 13 14 64 -24 64 -5 0 -14 -9
-20 -19z"/>
<path d="M8090 3871 c-15 -29 -12 -56 8 -74 27 -24 58 -21 81 9 32 40 8 84
-45 84 -23 0 -37 -6 -44 -19z"/>
<path d="M2958 3623 c7 -3 16 -2 19 1 4 3 -2 6 -13 5 -11 0 -14 -3 -6 -6z"/>
<path d="M6870 3481 c-72 -38 -122 -109 -133 -186 -7 -46 12 -130 29 -130 13
0 344 276 344 287 0 4 -18 17 -40 28 -52 26 -151 27 -200 1z"/>
<path d="M2268 3453 c7 -3 16 -2 19 1 4 3 -2 6 -13 5 -11 0 -14 -3 -6 -6z"/>
<path d="M6318 3383 c7 -3 16 -2 19 1 4 3 -2 6 -13 5 -11 0 -14 -3 -6 -6z"/>
<path d="M6336 2844 c-31 -31 -13 -74 31 -74 43 0 52 59 12 80 -23 13 -25 13
-43 -6z"/>
<path d="M7336 2664 c-13 -33 -6 -54 19 -60 43 -11 73 34 43 64 -17 17 -55 15
-62 -4z"/>
<path d="M3047 2436 c-8 -21 16 -49 39 -45 12 3 20 14 22 32 3 24 0 27 -26 27
-17 0 -32 -6 -35 -14z"/>
<path d="M3450 2466 c-20 -26 -8 -61 22 -64 22 -3 29 2 34 22 11 44 -29 74
-56 42z"/>
<path d="M3557 2473 c-4 -3 -7 -21 -7 -40 0 -29 3 -33 25 -33 30 0 48 35 33
63 -9 17 -39 23 -51 10z"/>
</g>
</svg>
